<?xml version="1.0" encoding="utf-8"?>
<!-- Generator: Avocode 2.6.0 - http://avocode.com -->
<svg height="29" width="24" xmlns:xlink="http://www.w3.org/1999/xlink" xmlns="http://www.w3.org/2000/svg" viewBox="0 0 24 29">
    <path fill-opacity="0.5" fill="#000000" fill-rule="evenodd" d="M 20.14 15.26 C 20.11 11.68 23.07 9.94 23.2 9.86 C 21.52 7.41 18.93 7.08 18.01 7.05 C 15.83 6.82 13.71 8.36 12.6 8.36 C 11.47 8.36 9.75 7.07 7.91 7.11 C 5.53 7.15 3.31 8.52 2.09 10.66 C -0.42 15.01 1.45 21.41 3.86 24.93 C 5.07 26.65 6.48 28.58 8.32 28.51 C 10.12 28.44 10.8 27.36 12.97 27.36 C 15.13 27.36 15.76 28.51 17.64 28.46 C 19.58 28.44 20.8 26.73 21.96 24.99 C 23.35 23.02 23.91 21.07 23.93 20.97 C 23.89 20.96 20.18 19.54 20.14 15.26 L 20.14 15.26 Z M 16.59 4.74 C 17.56 3.52 18.22 1.87 18.04 0.2 C 16.63 0.26 14.88 1.17 13.87 2.36 C 12.97 3.4 12.17 5.12 12.38 6.73 C 13.96 6.85 15.57 5.93 16.59 4.74 L 16.59 4.74 Z M 16.59 4.74" />
</svg>