<?xml version="1.0" encoding="utf-8"?>
<!-- Generator: Adobe Illustrator 18.0.0, SVG Export Plug-In . SVG Version: 6.00 Build 0)  -->
<!DOCTYPE svg PUBLIC "-//W3C//DTD SVG 1.1//EN" "http://www.w3.org/Graphics/SVG/1.1/DTD/svg11.dtd">
<svg version="1.1" id="Слой_1" xmlns="http://www.w3.org/2000/svg" xmlns:xlink="http://www.w3.org/1999/xlink" x="0px" y="0px"
	 viewBox="0 0 19 19" enable-background="new 0 0 19 19" xml:space="preserve">
<path fill="#DFDFDF" d="M18.6,6.8C17.5,2.8,13.7,0,9.5,0C8.6,0,7.7,0.1,6.8,0.4c-5,1.5-7.9,6.7-6.5,11.8c1.2,4,4.9,6.9,9.1,6.9
	c0.9,0,1.8-0.1,2.7-0.4c2.4-0.7,4.5-2.3,5.7-4.5C19,11.9,19.3,9.3,18.6,6.8L18.6,6.8z M6.5,4.7c0.2-1.3,0.6-2,0.9-2.1
	c0,0,0.1,0,0.1,0c0.8,0,2.3,1.5,3.5,4.1c-0.6,0.3-1.3,0.6-2.2,0.8C8.1,7.7,7.3,7.8,6.7,7.9C6.5,6.7,6.4,5.6,6.5,4.7L6.5,4.7z
	 M4.4,4.3c0,0,0,0.1,0,0.1C4.3,5.5,4.3,6.7,4.5,8c-1-0.1-1.7-0.3-2-0.6C2.8,6.3,3.5,5.1,4.4,4.3L4.4,4.3z M2.5,11.6
	C2.5,11.6,2.5,11.6,2.5,11.6L2.5,11.6L2.5,11.6L2.5,11.6c-0.2-0.6-0.3-1.2-0.3-1.8c0.8,0.3,1.7,0.4,2.7,0.4c0,0.2,0.1,0.4,0.1,0.6
	c0.2,0.6,0.4,1.3,0.7,1.9C4.3,12.6,3.1,12.2,2.5,11.6L2.5,11.6z M4.4,14.8c0.6,0.1,1.2,0.1,1.8,0.1c0.2,0,0.3,0,0.5,0
	c0.4,0.7,0.8,1.3,1.2,1.8C6.6,16.4,5.4,15.7,4.4,14.8L4.4,14.8z M7.2,10.2c0,0,0-0.1,0-0.1C7.9,10,8.7,9.8,9.5,9.6
	c0.8-0.2,1.6-0.5,2.3-0.9c0,0,0,0.1,0,0.1c0.3,0.9,0.4,1.7,0.5,2.5c-0.7,0.3-1.4,0.6-2.1,0.8c-0.8,0.2-1.5,0.4-2.2,0.5
	C7.7,11.9,7.4,11.1,7.2,10.2L7.2,10.2z M11.5,16.5c-0.5,0.2-1.4-0.5-2.4-1.9c0.6-0.1,1.1-0.2,1.7-0.4c0.6-0.2,1.1-0.3,1.7-0.6
	C12.4,15.3,12,16.3,11.5,16.5L11.5,16.5z M13,5.6c-0.6-1.2-1.2-2.3-1.9-3.2c1.2,0.3,2.4,0.9,3.3,1.7C14.2,4.4,13.8,5,13,5.6L13,5.6z
	 M13.9,8.2c0-0.2-0.1-0.4-0.2-0.6c0.8-0.5,1.5-1.2,2-1.8c0.3,0.5,0.5,1,0.7,1.6c-0.2,0.9-1,1.9-2.1,2.7C14.3,9.5,14.1,8.9,13.9,8.2
	L13.9,8.2z M15.9,13c-0.3,0.6-0.8,1.2-1.3,1.7c0.1-0.7,0.1-1.4,0.1-2.2c0.7-0.4,1.4-0.9,1.9-1.4C16.5,11.8,16.2,12.4,15.9,13
	L15.9,13z"/>
</svg>
